<svg xmlns="http://www.w3.org/2000/svg" viewBox="0 0 100 100">
  <defs>
    <linearGradient id="avatarGrad" x1="0%" y1="0%" x2="100%" y2="100%">
      <stop offset="0%" style="stop-color:#d675ff;stop-opacity:1" />
      <stop offset="50%" style="stop-color:#8b5cf6;stop-opacity:1" />
      <stop offset="100%" style="stop-color:#d946ef;stop-opacity:1" />
    </linearGradient>
  </defs>

  <!-- Background -->
  <rect width="100" height="100" rx="20" fill="url(#avatarGrad)"/>

  <!-- Star decorations -->
  <g fill="white" opacity="0.3">
    <circle cx="20" cy="25" r="3"/>
    <circle cx="75" cy="20" r="2.5"/>
    <circle cx="80" cy="70" r="3.5"/>
    <circle cx="25" cy="75" r="2"/>
  </g>

  <!-- Character silhouette -->
  <g fill="white" opacity="0.9">
    <!-- Head -->
    <circle cx="50" cy="42" r="18"/>

    <!-- Body -->
    <ellipse cx="50" cy="75" rx="22" ry="18"/>

    <!-- Hair bangs -->
    <path d="M32 35 Q35 25 40 32 Q45 22 50 30 Q55 20 60 30 Q65 22 68 32 Q72 28 73 38" fill="white" opacity="0.95"/>
  </g>

  <!-- Sparkles -->
  <g fill="white">
    <path d="M15 15 L17 20 L22 20 L18 24 L20 29 L15 26 L10 29 L12 24 L8 20 L13 20 Z" opacity="0.6"/>
    <path d="M82 12 L83.5 15 L87 15 L84 17 L85 20 L82 18 L79 20 L80 17 L77 15 L80.5 15 Z" opacity="0.5"/>
  </g>
</svg>
